<svg width="64" height="61" viewBox="0 0 64 61" fill="none" xmlns="http://www.w3.org/2000/svg">
<path d="M31.0305 0.836832C31.2849 -0.16985 32.7151 -0.169851 32.9695 0.836831L37.5075 18.7954C37.6601 19.3996 38.3223 19.7185 38.8899 19.4612L55.7599 11.8121C56.7055 11.3833 57.5973 12.5016 56.9688 13.3281L45.7576 28.073C45.3804 28.5691 45.544 29.2856 46.0991 29.5689L62.5976 37.9892C63.5224 38.4612 63.2042 39.8557 62.1661 39.8797L43.648 40.3077C43.025 40.3221 42.5667 40.8967 42.6913 41.5073L46.3947 59.6564C46.6023 60.6737 45.3136 61.2943 44.6477 60.4977L32.7672 46.2865C32.3675 45.8084 31.6325 45.8084 31.2328 46.2865L19.3523 60.4977C18.6864 61.2943 17.3977 60.6737 17.6053 59.6564L21.3087 41.5073C21.4333 40.8967 20.975 40.3221 20.352 40.3077L1.8339 39.8797C0.795851 39.8557 0.477579 38.4612 1.40242 37.9892L17.9009 29.5689C18.456 29.2856 18.6196 28.5691 18.2424 28.073L7.03117 13.3281C6.40271 12.5016 7.29449 11.3833 8.24014 11.8121L25.1101 19.4612C25.6777 19.7185 26.3399 19.3996 26.4925 18.7954L31.0305 0.836832Z" fill="#FFE8A9"/>
</svg>
